<?xml version="1.0" standalone="no"?>
<!DOCTYPE svg PUBLIC "-//W3C//DTD SVG 20010904//EN"
 "http://www.w3.org/TR/2001/REC-SVG-20010904/DTD/svg10.dtd">
<svg version="1.0" xmlns="http://www.w3.org/2000/svg"
 width="400.000000pt" height="400.000000pt" viewBox="0 0 400.000000 400.000000"
 preserveAspectRatio="xMidYMid meet">
<metadata>
Created by potrace 1.14, written by Peter Selinger 2001-2017
</metadata>
<g transform="translate(0.000000,400.000000) scale(0.100000,-0.100000)"
fill="#000000" stroke="none">
<path d="M0 3986 c0 -8 13 -35 30 -59 17 -25 30 -50 30 -56 0 -6 -13 -11 -30
-11 l-30 0 0 -60 c0 -33 3 -60 6 -60 30 0 78 64 72 98 -2 13 4 17 27 15 22 -2
44 -17 85 -62 30 -33 74 -71 97 -85 68 -42 69 -82 2 -136 -35 -28 -40 -37 -35
-61 7 -35 -68 -186 -118 -239 -60 -62 -80 -125 -56 -171 15 -26 49 -24 114 8
46 22 57 24 70 14 9 -8 16 -23 16 -36 0 -12 13 -42 30 -66 16 -24 30 -52 30
-61 0 -9 -18 -36 -40 -59 -45 -48 -53 -46 -99 28 -41 66 -85 93 -148 93 l-53
0 0 -231 0 -231 48 6 c68 9 102 -4 140 -53 44 -58 43 -92 -5 -128 -77 -59 -83
-68 -83 -127 0 -65 -16 -86 -66 -86 l-34 0 0 -86 0 -86 42 7 c24 4 51 11 60
16 9 5 43 8 75 7 32 -1 72 4 89 12 29 13 36 11 105 -25 49 -25 101 -43 154
-52 54 -9 100 -25 143 -49 47 -27 80 -37 125 -41 80 -7 102 -21 122 -83 20
-60 15 -96 -20 -147 -14 -21 -32 -59 -41 -85 -16 -50 -18 -51 -98 -62 -24 -3
-50 -16 -64 -30 l-25 -24 30 -29 c17 -15 45 -40 63 -55 28 -24 31 -31 25 -60
-12 -56 -25 -63 -84 -43 -28 9 -61 15 -73 13 -20 -3 -23 -9 -22 -45 1 -49 25
-83 59 -83 12 0 39 14 60 30 43 34 65 37 88 12 18 -20 12 -32 -96 -174 -61
-80 -72 -88 -121 -88 -67 0 -70 -11 -18 -56 26 -22 52 -43 59 -47 16 -10 154
12 172 27 27 21 81 149 81 191 0 53 10 85 25 85 24 0 39 -32 46 -97 8 -79 31
-106 110 -133 30 -11 72 -26 94 -34 22 -8 56 -15 76 -16 60 0 100 -60 101
-151 0 -50 -32 -126 -58 -136 -24 -9 -101 26 -159 73 -60 49 -92 55 -166 28
-27 -9 -69 -14 -109 -13 -98 4 -173 0 -188 -10 -8 -4 -17 -32 -20 -62 -8 -65
-29 -75 -74 -32 -27 25 -29 32 -24 74 6 44 6 46 -31 64 -25 12 -73 21 -140 25
-91 6 -106 10 -149 39 -26 17 -60 31 -76 31 -68 0 -98 45 -98 147 0 68 -14
113 -37 121 -10 3 -13 -35 -13 -166 0 -164 1 -170 21 -175 18 -5 21 -11 17
-44 -9 -70 26 -105 117 -118 30 -4 77 -23 118 -47 66 -38 71 -39 112 -29 55
14 51 14 69 -5 25 -24 20 -71 -8 -89 -22 -15 -27 -15 -55 -1 -16 9 -33 20 -36
26 -12 19 -44 10 -80 -21 -49 -43 -47 -76 7 -134 l41 -46 -23 -24 c-29 -30
-83 -42 -115 -25 -13 7 -37 38 -54 70 -37 69 -45 76 -94 85 l-37 7 0 -151 0
-151 186 0 c166 0 188 2 200 18 13 16 15 16 28 0 12 -16 37 -18 274 -18 l261
0 11 58 c7 31 15 63 19 71 4 8 52 26 107 41 54 15 124 39 154 54 57 27 77 30
104 20 31 -12 16 -33 -46 -66 -68 -36 -93 -69 -104 -136 l-7 -42 843 0 842 0
18 22 c26 33 106 33 128 0 13 -20 23 -22 93 -22 44 0 79 3 79 8 -1 17 -18 32
-63 51 -39 17 -48 25 -45 42 2 12 16 31 31 43 24 18 42 21 115 21 48 0 110 -2
137 -4 28 -2 64 0 81 4 51 11 58 -31 8 -53 -21 -10 -24 -18 -24 -62 l0 -50
126 0 c116 0 126 1 119 18 -18 45 -17 91 3 124 36 60 36 72 -3 122 -46 61 -48
105 -5 148 28 27 35 30 73 24 24 -4 58 -20 81 -38 22 -18 57 -35 80 -38 23 -4
53 -11 69 -15 l27 -7 0 191 0 191 -37 0 c-29 0 -43 8 -74 39 -45 49 -56 88
-35 130 18 33 91 81 124 81 21 0 22 4 22 106 0 96 -2 105 -17 100 -71 -20 -92
-18 -140 13 -70 47 -91 40 -131 -39 -26 -53 -33 -79 -35 -137 -2 -72 -2 -72
39 -115 23 -24 44 -50 47 -59 8 -24 -36 -112 -68 -137 -37 -29 -92 -29 -126 1
-14 12 -46 53 -70 92 -43 67 -44 72 -44 150 0 68 4 85 23 113 14 19 27 57 32
93 6 41 16 69 31 85 27 29 90 48 129 39 39 -9 70 10 70 41 0 14 -12 46 -26 70
-15 25 -23 48 -20 52 15 14 99 -44 143 -99 48 -62 79 -79 131 -71 l32 4 0 154
0 154 -36 0 c-20 0 -54 5 -75 11 -50 16 -84 1 -149 -63 -49 -48 -52 -49 -70
-33 -74 67 -29 215 66 215 21 0 57 -7 80 -16 42 -16 43 -16 113 18 l71 33 0
148 c0 135 -1 147 -18 147 -40 0 -82 -62 -82 -121 0 -38 -21 -38 -79 0 -50 33
-57 32 -119 -23 -61 -53 -84 -66 -125 -66 -27 0 -45 7 -62 25 -26 25 -29 39
-25 117 3 66 -6 86 -41 93 -32 7 -105 -23 -184 -76 -22 -15 -55 -30 -72 -34
-37 -7 -54 7 -124 105 -43 60 -45 77 -25 165 15 64 50 105 87 105 45 0 59 18
58 72 -2 50 0 53 42 90 24 20 56 40 70 43 40 9 162 -37 215 -80 25 -21 67 -48
94 -61 61 -29 73 -59 37 -89 -13 -12 -44 -25 -67 -29 -76 -12 -120 -89 -86
-154 28 -54 123 -49 184 11 21 20 54 43 74 52 23 9 47 30 63 54 13 22 29 42
35 46 6 4 26 -7 46 -24 24 -22 45 -31 69 -31 l35 0 0 210 0 210 -76 0 c-41 0
-95 -5 -119 -11 -53 -13 -61 -9 -114 59 -76 96 -140 106 -187 27 -40 -70 -108
-75 -138 -11 -25 54 -20 99 16 151 32 45 32 46 20 103 -20 97 -14 123 51 206
43 54 40 82 -20 164 -73 100 -74 101 -67 185 6 69 9 76 30 81 33 9 72 -3 78
-22 2 -10 9 -38 16 -64 14 -52 39 -82 67 -76 10 2 31 27 47 56 15 30 34 56 41
59 20 7 103 -53 126 -90 10 -18 19 -48 19 -68 0 -22 8 -46 20 -60 l20 -24 33
36 c17 20 52 49 76 64 38 24 43 30 37 55 -3 19 0 34 9 44 12 12 15 56 15 250
l0 236 -95 0 -95 0 0 -34 c0 -79 -38 -118 -73 -75 -14 18 -18 34 -14 66 l5 43
-189 0 -189 0 0 -23 c0 -51 -76 -86 -187 -87 -66 0 -73 -2 -96 -30 -14 -16
-27 -35 -29 -42 -4 -11 -14 -11 -51 0 -88 23 -109 17 -190 -55 -20 -18 -44
-33 -51 -33 -30 0 -26 -22 13 -82 57 -88 60 -109 21 -171 -24 -38 -34 -68 -37
-112 -3 -33 -9 -65 -14 -71 -5 -6 -32 -9 -68 -6 -55 4 -60 3 -77 -23 -26 -40
-10 -74 51 -107 95 -51 101 -91 20 -143 -31 -19 -58 -42 -62 -51 -3 -9 6 -28
24 -47 50 -54 99 -128 143 -217 23 -47 62 -106 87 -132 l45 -46 -13 -87 c-16
-113 -35 -139 -93 -130 -22 4 -92 31 -153 61 -90 44 -116 53 -132 45 -10 -6
-44 -39 -75 -74 -49 -57 -63 -66 -130 -89 -41 -14 -80 -22 -86 -18 -8 5 -10
33 -5 97 8 103 2 116 -64 127 -54 8 -85 39 -76 74 8 33 92 121 121 128 12 3
36 -1 52 -10 44 -23 86 -20 119 8 30 26 34 57 18 166 -7 52 -5 59 38 140 24
47 48 100 51 118 7 29 5 34 -24 50 -18 9 -43 25 -56 36 l-25 18 47 86 c25 47
53 107 60 134 10 33 25 56 49 74 46 35 45 59 -5 84 -46 24 -54 45 -48 131 4
57 7 63 48 98 l44 38 -14 86 -13 87 -219 0 -218 0 0 -37 c0 -49 -20 -87 -47
-91 -12 -2 -42 8 -65 22 -40 23 -185 66 -222 66 -9 0 -22 -11 -28 -25 -10 -23
-7 -29 40 -79 43 -45 52 -61 52 -91 0 -47 -32 -64 -88 -47 -54 16 -81 50 -91
111 -6 41 -16 61 -47 92 -44 45 -55 47 -95 18 -30 -21 -121 -38 -210 -39 -53
0 -75 18 -85 68 l-6 32 -80 0 c-78 0 -79 -1 -73 -22 10 -35 40 -56 98 -68 71
-15 86 -25 151 -98 58 -66 69 -98 40 -126 -12 -13 -30 -14 -92 -9 -106 8 -119
15 -132 62 -6 22 -22 49 -36 60 -29 23 -124 47 -148 38 -33 -13 -14 -134 29
-186 30 -35 32 -62 5 -86 -16 -14 -29 -16 -70 -11 -47 6 -50 5 -50 -16 0 -13
7 -45 15 -72 8 -27 15 -68 15 -92 0 -39 -3 -45 -50 -78 -27 -20 -50 -40 -50
-46 0 -5 -9 -14 -20 -20 -17 -9 -31 -5 -76 20 -39 23 -73 34 -117 38 -34 3
-71 11 -82 17 -11 7 -37 18 -58 25 -39 12 -77 57 -77 91 0 28 34 49 79 49 34
0 48 -6 76 -34 l34 -34 83 5 c107 6 108 7 108 43 0 32 -20 57 -89 108 -43 32
-41 65 9 131 22 29 40 57 40 62 0 17 -33 94 -48 111 -10 12 -33 18 -76 20
l-61 3 -3 58 -3 57 -244 0 c-207 0 -245 -2 -245 -14z m2259 -197 c43 -43 42
-82 -5 -143 -31 -41 -35 -52 -30 -84 13 -76 13 -77 -14 -76 -47 3 -125 23
-165 44 -43 22 -53 21 -132 -16 -40 -19 -57 -22 -77 -14 -70 26 -59 160 14
160 16 0 60 -11 96 -25 98 -37 127 -23 176 85 16 36 37 73 45 82 24 27 58 22
92 -13z m1581 16 c32 -17 40 -49 18 -77 -39 -49 -148 -78 -162 -42 -13 35 61
134 100 134 8 0 28 -7 44 -15z m-2355 -340 c99 -60 90 -58 145 -34 64 27 88
20 123 -36 16 -25 33 -45 37 -45 5 0 18 16 30 35 28 46 55 51 132 27 35 -11
93 -27 130 -37 89 -23 104 -40 100 -119 -1 -33 -5 -68 -7 -77 -9 -26 -126
-111 -154 -111 -36 0 -61 36 -61 87 0 49 -31 95 -81 120 -47 25 -64 19 -75
-22 -7 -28 -15 -39 -31 -41 -23 -3 -38 10 -97 83 -30 38 -92 75 -124 75 -41 0
-121 -32 -165 -65 -68 -52 -77 -48 -77 33 0 65 1 69 38 104 58 55 78 59 137
23z m1665 -107 c13 -14 20 -35 20 -61 0 -33 -8 -47 -53 -95 -30 -31 -56 -64
-60 -73 -3 -9 5 -40 19 -69 30 -65 30 -67 -2 -165 -29 -88 -56 -125 -90 -125
-30 0 -86 49 -137 122 -23 33 -52 73 -64 89 -12 17 -20 36 -17 43 6 16 84 59
135 75 56 18 73 42 66 96 -8 58 3 85 57 140 52 52 92 59 126 23z m-298 -132
c9 -13 0 -46 -17 -64 -18 -20 -51 0 -60 35 -5 20 -2 31 11 40 19 14 54 8 66
-11z m-1682 -65 c0 -20 -17 -37 -27 -28 -7 8 7 47 18 47 5 0 9 -9 9 -19z
m1125 -1 c-3 -5 -17 -10 -31 -10 -13 0 -24 5 -24 10 0 6 14 10 31 10 17 0 28
-4 24 -10z m-394 -145 c8 -10 25 -40 39 -68 20 -40 32 -53 56 -59 49 -12 57
-30 51 -104 -4 -54 -10 -71 -33 -95 -40 -42 -95 -57 -129 -35 -22 14 -25 24
-25 70 0 31 9 74 21 103 l21 51 -46 62 c-47 64 -55 87 -35 107 14 14 55 -4 80
-32z m-842 -26 c9 -16 12 -36 7 -53 -6 -26 -10 -28 -44 -22 -73 11 -120 75
-70 96 42 17 91 8 107 -21z m-415 -16 c37 -57 42 -87 17 -112 -12 -12 -34 -21
-51 -21 -23 0 -35 8 -54 38 -13 20 -35 48 -50 61 -48 45 -26 70 61 71 50 0 54
-2 77 -37z m836 -22 c14 -27 13 -31 -8 -31 -21 0 -42 18 -42 37 0 20 38 15 50
-6z m-347 -133 c13 -20 0 -68 -18 -68 -11 0 -15 12 -15 46 0 46 13 55 33 22z
m-843 -15 c18 -13 52 -20 118 -23 108 -7 134 -23 136 -85 1 -48 -33 -76 -101
-82 -46 -4 -50 -3 -93 41 -34 36 -51 46 -76 46 -48 0 -64 9 -64 37 0 31 27 83
43 83 7 0 24 -8 37 -17z m641 -56 c43 -29 49 -60 15 -82 -20 -13 -31 -14 -65
-5 -30 8 -58 8 -102 0 -73 -13 -88 -5 -73 37 24 70 153 99 225 50z m782 -59
c80 -31 100 -49 86 -83 -14 -36 -10 -102 9 -124 9 -11 37 -31 61 -44 59 -30
86 -67 86 -118 0 -57 -40 -91 -99 -87 -38 3 -43 7 -72 58 -18 30 -51 79 -74
109 l-43 54 11 56 c14 75 1 96 -71 111 -122 25 -133 120 -12 103 22 -3 75 -19
118 -35z m1367 -112 c0 -12 11 -44 25 -70 31 -59 31 -71 0 -92 -21 -14 -30
-14 -54 -4 -45 18 -57 58 -36 117 10 26 19 54 21 61 2 6 13 12 24 12 14 0 20
-7 20 -24z m-2470 -76 c0 -5 -4 -10 -10 -10 -5 0 -10 5 -10 10 0 6 5 10 10 10
6 0 10 -4 10 -10z m294 -61 c43 -51 35 -81 -37 -134 -20 -15 -51 -53 -68 -85
-41 -78 -71 -104 -114 -103 -78 2 -165 72 -165 133 0 12 15 37 34 56 33 33 38
34 96 32 68 -3 55 -11 151 101 35 41 69 41 103 0z m242 -210 c10 -11 21 -41
24 -67 5 -43 8 -48 57 -76 63 -36 78 -65 68 -135 -4 -31 -2 -64 5 -86 20 -60
-23 -86 -48 -30 -6 13 -40 41 -76 61 -36 21 -68 44 -70 51 -3 7 4 38 15 68 11
30 19 63 17 72 -4 19 -35 31 -90 32 -78 2 -86 20 -30 73 65 62 97 72 128 37z
m961 -49 c51 0 65 -60 23 -104 -21 -22 -44 -13 -84 35 -41 48 -31 84 19 74 11
-3 30 -5 42 -5z m437 -25 c16 -3 49 -20 73 -36 24 -17 74 -41 110 -53 95 -32
100 -45 36 -101 -119 -104 -121 -165 -10 -234 39 -24 57 -63 40 -90 -5 -9 -25
-27 -44 -39 -20 -15 -33 -30 -31 -40 12 -59 13 -94 2 -107 -17 -20 -116 -21
-123 -1 -8 21 7 69 35 106 l23 32 -40 32 c-22 17 -67 57 -100 88 l-60 57 28
26 c37 35 34 62 -13 110 -29 30 -45 58 -55 96 -27 100 -13 154 43 162 28 4 38
3 86 -8z m-761 -29 c-3 -40 -50 -88 -82 -84 -27 3 -75 63 -65 80 12 19 69 38
109 35 37 -2 40 -4 38 -31z m1595 -236 c44 -27 66 -80 57 -138 -4 -30 -1 -58
11 -93 17 -47 17 -50 -2 -96 -17 -43 -24 -49 -67 -62 -36 -11 -58 -27 -89 -63
-32 -39 -46 -48 -72 -48 -47 0 -149 20 -163 32 -30 25 1 113 48 138 12 7 63
16 112 20 77 6 93 11 109 30 33 41 17 79 -55 131 -58 42 -80 38 -122 -19 -37
-52 -69 -72 -116 -72 -41 0 -79 39 -79 83 0 37 14 53 93 106 42 29 54 32 95
27 38 -5 56 -1 92 19 55 30 104 31 148 5z m-1852 -35 c21 -33 15 -59 -16 -63
-42 -5 -89 56 -63 81 16 17 63 6 79 -18z m579 -11 c16 -7 35 -49 35 -79 0 -36
27 -58 64 -51 17 3 56 9 87 12 52 6 58 5 69 -16 18 -34 4 -254 -20 -323 -15
-42 -18 -69 -13 -144 l6 -92 -36 -6 c-19 -4 -57 -2 -84 5 -26 6 -94 13 -151
16 -103 4 -104 4 -133 -25 -26 -26 -29 -36 -29 -91 0 -57 -3 -65 -34 -96 -32
-32 -38 -34 -104 -34 -62 0 -77 -4 -122 -32 -52 -32 -52 -32 -69 -12 -22 28
-55 129 -48 148 3 8 25 20 49 27 104 28 138 56 138 113 0 77 -53 106 -196 108
-102 2 -135 12 -120 37 4 5 10 68 15 140 9 142 21 176 67 187 34 9 52 -10 63
-69 10 -56 35 -87 68 -87 28 0 145 99 162 137 20 45 130 24 158 -31 8 -17 40
-55 69 -83 l54 -53 0 -65 c0 -41 6 -78 16 -98 17 -34 63 -87 75 -87 19 0 18
45 0 106 -12 36 -21 76 -21 88 0 11 -12 43 -26 70 -25 46 -25 53 -16 118 6 39
8 76 5 84 -3 8 -25 20 -50 27 -66 17 -86 41 -80 91 8 57 38 80 95 71 25 -4 50
-9 57 -11z m-336 -84 c13 -60 14 -110 3 -110 -11 0 -55 31 -69 50 -17 21 -16
45 2 80 25 48 51 39 64 -20z m-571 -53 c25 -26 20 -79 -13 -127 -17 -23 -39
-55 -50 -72 -11 -16 -35 -47 -52 -68 -18 -20 -33 -44 -33 -53 0 -19 42 -50 95
-68 41 -15 135 -96 135 -118 0 -16 -46 -61 -63 -61 -7 0 -37 18 -67 40 -29 22
-69 42 -89 45 -82 13 -111 26 -126 55 -32 63 -16 123 69 249 35 51 36 57 30
111 -6 52 -4 59 17 74 30 22 122 17 147 -7z m1351 -314 c28 -23 40 -70 29
-110 -14 -52 -52 -39 -93 32 -36 60 -26 88 31 94 7 0 21 -7 33 -16z m436 9 c6
-4 30 -46 55 -94 54 -107 50 -118 -35 -98 -44 11 -66 11 -108 1 -68 -15 -95
-5 -130 48 -48 72 -39 86 73 125 67 24 127 31 145 18z m374 -87 c45 -23 47
-58 11 -132 -35 -70 -70 -96 -123 -91 -24 2 -34 10 -41 30 -8 23 -4 33 28 72
20 25 42 60 48 78 20 61 31 67 77 43z m-737 -128 c55 -41 78 -87 78 -155 0
-34 7 -67 21 -93 23 -45 21 -49 -24 -65 -69 -23 -105 -146 -57 -194 24 -24 36
-25 85 -5 44 19 66 13 98 -25 20 -23 25 -44 31 -115 8 -101 2 -116 -69 -165
-25 -17 -45 -37 -45 -44 0 -6 16 -27 35 -46 42 -41 44 -65 6 -116 -39 -54 -68
-77 -85 -71 -24 9 -57 85 -63 141 -5 46 -2 54 21 75 32 30 33 52 2 87 l-23 28
-27 -27 c-19 -19 -26 -36 -26 -64 0 -47 -19 -75 -64 -97 -45 -21 -49 -21 -87
11 l-32 27 -73 -39 c-48 -25 -88 -55 -114 -87 -65 -77 -108 -75 -156 7 -19 33
-32 45 -49 45 -40 0 -56 26 -49 78 4 35 0 60 -15 100 -12 30 -25 77 -29 105
-8 58 -29 74 -102 84 -49 7 -58 -9 -63 -110 -3 -69 -7 -80 -50 -147 -35 -55
-47 -85 -52 -128 -9 -72 -23 -93 -74 -116 -48 -22 -61 -15 -92 45 -26 51 -24
61 14 119 17 27 46 70 62 96 17 26 37 58 45 70 14 21 12 28 -17 86 -18 35 -49
89 -69 120 -25 39 -36 68 -36 93 0 77 62 85 108 15 44 -66 125 -77 174 -24 38
39 67 32 148 -38 18 -15 37 -28 42 -28 5 0 29 18 55 40 25 21 52 37 59 34 26
-10 39 -58 27 -100 -20 -70 -14 -94 29 -136 38 -36 45 -38 103 -38 53 0 69 -5
120 -36 l59 -36 21 21 c17 16 21 33 21 75 -1 69 -27 115 -73 131 -35 12 -71
48 -71 71 0 26 28 26 67 0 43 -30 75 -33 97 -10 20 19 20 71 1 104 -24 42 -18
69 30 122 25 28 45 56 45 62 0 23 -24 36 -64 36 -23 0 -52 6 -66 13 -52 26
-82 145 -42 166 10 5 42 13 72 17 38 5 62 15 84 35 17 16 36 29 43 29 6 0 31
-15 55 -33z m440 -337 c43 0 58 -24 58 -94 0 -78 -14 -101 -57 -92 -63 14
-103 79 -103 165 0 33 0 34 38 27 20 -3 49 -6 64 -6z m371 -227 c28 -6 107
-76 127 -113 18 -34 -67 -150 -109 -150 -11 0 -39 16 -61 37 -46 41 -88 46
-122 16 -26 -23 -48 -74 -48 -112 0 -80 -31 -80 -141 2 -108 80 -111 92 -32
161 32 28 80 74 108 103 27 29 61 57 75 63 24 10 138 6 203 -7z m-2339 -147
c36 -15 66 -50 66 -78 0 -32 -37 -56 -114 -73 -75 -17 -126 -45 -126 -69 0 -7
-9 -21 -20 -31 -17 -16 -27 -16 -91 -7 -40 6 -76 15 -81 20 -15 15 0 69 28
102 16 18 44 34 78 44 36 11 59 24 70 42 35 53 54 64 106 64 28 0 66 -6 84
-14z"/>
<path d="M2026 301 c-15 -16 -16 -25 -6 -60 l11 -40 97 5 c53 3 103 7 110 10
23 7 13 51 -19 78 -27 23 -40 26 -103 26 -59 0 -76 -4 -90 -19z"/>
<path d="M693 3988 c2 -7 12 -13 22 -13 10 0 20 6 23 13 2 7 -6 12 -23 12 -17
0 -25 -5 -22 -12z"/>
<path d="M2780 3975 c0 -28 32 -65 55 -65 29 0 83 28 94 48 20 38 14 42 -69
42 -79 0 -80 0 -80 -25z"/>
<path d="M0 3626 l0 -65 33 6 c17 3 39 12 47 20 13 12 13 17 0 40 -8 15 -30
36 -48 46 l-32 19 0 -66z"/>
<path d="M3577 3203 c-4 -3 -7 -34 -7 -67 1 -74 28 -162 50 -159 8 1 58 10
111 20 82 14 102 15 136 4 48 -16 77 -12 81 11 4 20 -67 188 -79 188 -5 0 -11
-12 -15 -27 -3 -16 -8 -36 -11 -46 -15 -58 -121 -39 -195 34 -49 49 -59 55
-71 42z"/>
<path d="M3244 2195 c-22 -34 -11 -71 29 -95 40 -25 59 -25 80 -2 24 26 21 56
-9 91 -33 40 -76 42 -100 6z"/>
<path d="M214 1955 c-8 -21 4 -109 25 -175 15 -50 20 -55 47 -58 37 -4 83 31
107 80 23 47 8 69 -96 141 -45 30 -75 35 -83 12z"/>
<path d="M249 1460 c-51 -34 -98 -38 -175 -15 -77 23 -74 28 -74 -95 0 -101 2
-110 19 -110 10 0 35 -7 54 -15 64 -26 101 -20 136 23 30 35 34 37 94 38 72 1
134 26 149 60 16 34 -15 110 -52 129 -47 24 -101 19 -151 -15z"/>
<path d="M544 1425 c-7 -27 0 -55 13 -55 15 1 45 51 39 66 -9 24 -45 17 -52
-11z"/>
<path d="M318 1088 c-20 -15 -64 -189 -54 -213 9 -24 63 -14 123 21 44 25 45
28 40 65 -3 22 -16 61 -29 87 -24 50 -50 63 -80 40z"/>
<path d="M3812 119 c-39 -20 -112 -92 -112 -111 0 -4 53 -8 119 -8 93 0 121 3
131 15 7 8 21 15 31 15 16 0 19 8 19 55 l0 55 -72 0 c-54 0 -84 -6 -116 -21z"/>
</g>
</svg>
